<svg xmlns="http://www.w3.org/2000/svg" viewBox="0 0 1220.65 566.27"><defs><style>.cls-1{fill:#585658;}</style></defs><title>9852443</title><g id="OBJECTS"><path class="cls-1" d="M177.6,171.81l2.38-1.32C248.19,189,215.14,240,190,216,190.82,200.63,185,183.18,177.6,171.81Zm-22.47,170v48.91h31.46V341.81Zm31.46-108.13H155.13v46.26h31.46Zm0,100.72V287.61H155.13V334.4Zm43.89,56.32L246.34,369s17.71,14.8,28.29,24.85c-.79,2.91-3.44,4.23-7.14,4.23H155.13v12.69c0,2.12-9,8.46-23.53,8.46h-5.29V272a177.44,177.44,0,0,1-22.21,22.47l-2.64-2.38a178.23,178.23,0,0,0,9.25-17.45c-6.61,6.09-15.33,13.22-25.91,21.68v84.61c0,21.94-4.23,34.63-38.07,38.33-.79-10.84-2.11-18.51-5.81-23.79-4-5-9.78-8.46-21.68-10.84v-4s24.85,1.85,30.67,1.85c4,0,5.28-1.58,5.28-4.76V318.81c-4.49,3.17-9.25,6.61-14,10-.53,3.44-2.91,6.88-6.08,7.93L20.56,302.94c6.87-2.11,19.3-6.34,34.63-11.89V241.61H24l-1.85-7.41h33V171.81l39.4,3.7c-.53,4-3.18,6.61-9.79,7.67v51h1.86l12.69-19.56s14.27,13.75,22.47,22.74c-.8,2.9-3.44,4.23-6.88,4.23H84.8v38.6c9-3.18,18.25-6.88,27.24-10.31l.52,1.05c14.81-32,25.12-71.12,29.35-98.61l41.77,12.16c-1.05,2.91-3.17,5-9.78,5.29a277.59,277.59,0,0,1-16.39,36l1.06.27h69l15.33-20.62s17.45,14.27,27.76,24.06c-.79,2.9-3.7,4.23-7.4,4.23H214.62v46.26h7.66l14.54-20.36s16.13,14.28,25.91,23.8c-.79,2.91-3.43,4.23-7.4,4.23H214.62V334.4h7.66l14.54-20.35s16.13,14,25.91,23.53c-.79,2.91-3.43,4.23-7.4,4.23H214.62v48.91ZM374,209.35v64.51c0,45.74-2.12,105.22-48.91,145.15l-2.91-2.12c20.88-42,21.68-95.44,21.68-143v-84.6l34.9,12.43h71.11l-.52-.27c-2.38-10.84-10.84-22.74-18-29.08l1.85-1.59c48.12-3.17,50.23,21.95,37.28,30.94h58.95L545.62,180s18,14.8,28.55,25.11c-.53,2.91-3.43,4.23-7.14,4.23Zm66.09,51.82h45.21V243.46H440.13Zm50.76,17.45h-5.55V268.57H440.13v6.61c0,1.59-11.63,4.76-21.15,4.76h-5.55V243.46H384.61l-2.11-7.41h30.93v-23l34.9,3.18c-.53,2.9-2.38,5.28-8.2,6.08v13.74h45.21v-23L520,216.23c-.53,2.9-2.12,5.28-7.94,6.08v13.74h8.2l14.54-18.24s16.39,12.43,26.17,21.42c-.52,2.91-3.43,4.23-7.13,4.23H512v30.4C512,275.45,500.68,278.62,490.89,278.62ZM359.5,419.54l-1.06-3.44c28.82-10.05,61.6-28.82,77.46-43.36l30.41,22.74c-2.65,2.64-7.14,3.17-14.81,1.32C429.29,406.32,393.34,415.83,359.5,419.54Zm111.56-34.37,1.06-3.44C617,386,559.37,434.87,532.67,416.1,521,407.11,498.56,394.15,471.06,385.17Zm12.17-20.63h32V341h-32ZM420.83,341v23.53h32.26V341Zm32.26-29.08H420.83v21.68h32.26Zm62.13,0h-32v21.68h32Zm15.59-28.55,14.81-19.57s17.18,13.22,27.5,22.74c-.8,2.91-3.44,4.23-7.14,4.23H526.32l27.5,20.09c-1.33,1.86-4.23,3.71-8.46,4.5v57.9c-.27,2.11-15.34,7.67-25.12,7.67h-5v-8.73H420.83v4.23c0,2.64-12.95,9-24.59,9H392V292.37l30.67,12.16h90.16l12.95-13.75H377.21l-2.12-7.4ZM821.9,238.7H797.31c-4,9.52-8.46,18.51-12.95,27,4.75,20.09,11.1,38.07,19.82,54.19C814.5,295,819.78,267.78,821.9,238.7ZM697.64,215.17v34.1h1.06c7.66-11.36,14.54-22.73,20.88-34.1ZM869.49,238.7H855.74c-4.5,40.71-14.54,76.67-34.63,106.81,14.8,18.51,33.84,33.57,57.37,44.68l-.8,2.64c-14.54,2.91-23.26,11.11-27,25.12-19.57-13.75-34.11-31.73-45-53.14-21.41,23.26-51.29,41.77-92.53,54.46l-1.85-2.64c39.65-20.62,66.09-46.8,83.28-77.2-6.88-19.83-11.9-41.77-15.34-65.3a173,173,0,0,1-31.72,39.39l-3.44-2.12c7.67-15.33,14.81-34.1,20.89-54.72a8.34,8.34,0,0,1-2.65.26H719.58a322.32,322.32,0,0,1-26.44,27.5h19.3l14-14.54,25.91,22.47c-2.12,2.11-5,2.64-10.31,3.17-8.47,5-18.78,11.37-29.09,16.39l8.46.8c-.79,4-3.17,5.81-8.72,6.6v10.84c15.86-2.11,33-4.49,50-6.87l.53,3.7c-13.49,5.29-30.14,11.37-50.5,18.24v39.4c0,20.88-4.5,32-38.34,35.16-.79-9.25-2.11-16.13-6.08-20.36-4.23-4.49-9.78-7.66-22.47-9.78V386s27.23,1.58,32.52,1.58c4,0,5.29-1.05,5.29-4.23V354.76c-11.11,3.7-23.27,7.4-36.22,11.37a11.31,11.31,0,0,1-7.14,6.35l-13-32c11.9-1.06,32-3.18,56.32-6.35V309.29l15.6,1.32c4.23-5.82,8.46-12.69,11.89-18.51h-26.7a281.36,281.36,0,0,1-60,39.66l-2.65-2.91a291.83,291.83,0,0,0,42.3-36.75H638.68l-2.38-7.66h34.64a315.43,315.43,0,0,0,22.2-27.5H626.52l-2.11-7.67h43.88v-34.1H637.1l-2.12-7.4h33.31v-35.7l39.13,3.18c-.53,4-2.64,6.34-9.78,7.4v25.12h.79l12.43-16.92s7.4,6.08,14.54,12.69a282.88,282.88,0,0,0,12.43-28.29l34.63,16.65c-1.59,2.91-4.23,4.5-10.84,3.44a338.26,338.26,0,0,1-35.69,53.93h8.19l12.43-16.39s11.63,9.26,20.36,17.45a464,464,0,0,0,14.27-77.73l42.57,10.05c-.79,3.44-4,5.82-10.31,6.08A361.5,361.5,0,0,1,800.22,231h30.67l16.39-21.15s18.51,14.81,29.35,24.59C875.83,237.38,873.19,238.7,869.49,238.7Zm231.33,53.93h-93.33v16.13c97-10.58,92.53,36.48,67.42,32.25-12.17-7.13-38.07-18-67.42-25.11v6.87c0,10.05-.53,21.15-3.43,32.52,21.67-1.59,59.74-6.34,96.76-13Zm22.47-88L1139.68,184S1158.19,198,1169,208c-.53,2.91-3.44,4.23-6.88,4.23H1039.74a368.74,368.74,0,0,1-57.36,33.05c29.61.26,77.46,0,129-1.06a209.74,209.74,0,0,0-26.17-26.7l2.38-1.85c89.09,13.75,73.49,75.08,42.3,58.16a103,103,0,0,0-13-22.21c-34.37,5.82-82,13-138.26,19.83l-1.06,1.32,34.63,12.43h85.92l14-16.13,30.41,23.27c-1.59,2.11-5,4.49-10.58,5.55v88.57c0,19-4.76,30.14-40.45,33.05-.79-8.73-2.11-15.34-6.34-19.3-4.23-3.71-9.52-7.41-23-9.26v-4s26.7,1.85,33,1.85c4.5,0,5.56-1.85,5.56-5.29V350.27A653.7,653.7,0,0,1,1022,380.94c-1.59,3.43-4.23,5.81-7.13,6.34l-12.17-27.76c-6.34,21.94-21.94,44.68-57.89,60.28L943,417.42c30.14-28,33.85-63.19,33.85-94.65V273.86a13.61,13.61,0,0,1-6.09,3.7l-11.36-35.69s6.87-1.06,10-2.64c10.31-5.29,22.74-15.34,34.11-27H940.61l-2.12-7.67h72.18c10.83-12.16,20.08-24.58,24.84-33.57l42.57,14c-.79,2.91-4.23,5.29-10.31,5-5,4.5-10.84,9.52-17.45,14.54Z"/></g></svg>