<svg width="277" height="285" viewBox="0 0 277 285" fill="none" xmlns="http://www.w3.org/2000/svg">
<path d="M85 29.0001C-48.2834 -46.0001 25.2185 104 25.2185 104M85 29.0001C-48.2834 -46.0001 25.2185 104 25.2185 104" stroke="#52A038" stroke-width="10"/>
<path d="M192 29.0001C325.283 -46.0001 251.781 104 251.781 104M192 29.0001C325.283 -46.0001 251.781 104 251.781 104" stroke="#52A038" stroke-width="10"/>
<path d="M258 136.5C258 203.716 204.833 258 139.5 258C74.1667 258 21 203.716 21 136.5C21 69.2836 74.1667 15 139.5 15C204.833 15 258 69.2836 258 136.5Z" stroke="#52A038" stroke-width="10"/>
<path d="M264.5 138C264.5 208.462 208.49 265.5 139.5 265.5C70.5099 265.5 14.5 208.462 14.5 138C14.5 67.5377 70.5099 10.5 139.5 10.5C208.49 10.5 264.5 67.5377 264.5 138Z" stroke="white" stroke-width="5"/>
<path d="M245.762 137.546C245.38 198.363 198.189 247.156 140.616 246.794C83.0427 246.432 36.4698 197.049 36.8524 136.231C37.235 75.4136 84.4255 26.6207 141.999 26.9828C199.572 27.345 246.145 76.7279 245.762 137.546Z" stroke="white" stroke-width="5"/>
</svg>
