<svg version="1.2" xmlns="http://www.w3.org/2000/svg" viewBox="0 0 183 171" width="183" height="171">
	<title>logo-svg</title>
	<defs>
		<clipPath clipPathUnits="userSpaceOnUse" id="cp1">
			<path d="m0 13.55l170.54-13.55 12.43 156.51-170.54 13.54z"/>
		</clipPath>
	</defs>
	<style>
		.s0 { fill: none;stroke: #ffffff;stroke-linecap: round;stroke-width: 3 } 
		.s1 { fill: none;stroke: #ffffff;stroke-linecap: round;stroke-width: 2 } 
		.s2 { fill: none;stroke: #ffffff;stroke-linecap: round } 
		.s3 { fill: none;stroke: #ffffff;stroke-linecap: round;stroke-width: 1.5 } 
	</style>
	<g id="Clip-Path: logo" clip-path="url(#cp1)">
		<g id="logo">
			<path id="Vector 39" fill-rule="evenodd" class="s0" d="m77.1 48.6c0.8-0.1 2.4-0.4 1.9 0.5-0.5 0.7-1.5 0.3-1.6-0.2"/>
			<path id="Vector 40" fill-rule="evenodd" class="s1" d="m95.8 38.9l-0.1 2.6"/>
			<path id="Vector 74" fill-rule="evenodd" class="s1" d="m64.7 55.7c-13.9 3.1-35 45.5-9.4 44.7-6.6 13.4-2.5 32.5 11.2 39.6 13.9 4.9 40.2 2.7 51.5-2.6 19.8-9.9 17.2-35.2 7.5-43.8 5 0.2 11.3-2.9 12.3-6.2 2.2-7-7.9-27.2-21.3-33.9-5.9-1.6-1-12.8 9.7-25.9"/>
			<path id="Vector 76" fill-rule="evenodd" class="s1" d="m59.8 76c0 0-3 10.5-3 21.8"/>
			<path id="Vector 77" fill-rule="evenodd" class="s1" d="m60.1 75c1-5.8 5.2-16.6 7.9-20.3 3.5-2.5 6 3.8 7.6 8 6.8-1.8 13.8-1.8 19.6-0.5"/>
			<path id="Vector 78" fill-rule="evenodd" class="s1" d="m96.2 61.6c3.3-0.8 7.9-9.6 9.5-8.1 2.9 2.9 4.6 8.1 5.5 13.1 3 4.3 9.2 15.2 10.4 24.6"/>
			<path id="Vector 79" fill-rule="evenodd" class="s1" d="m121.8 56c0.5 0 25-1 8.1-28.7"/>
			<path id="Vector 80" fill-rule="evenodd" class="s2" d="m77.9 71.6c1.5-0.2 3.1-0.4 5.1 0.6"/>
			<path id="Vector 97" fill-rule="evenodd" class="s2" d="m100.8 71.2c-1.6 0-3.2-0.2-5.2 1.1"/>
			<path id="Vector 82" fill-rule="evenodd" class="s1" d="m77.5 28.5c-4.3 13.3-12.8 15.3-11.9 27"/>
			<path id="Vector 83" fill-rule="evenodd" class="s1" d="m64 50.6c-22.7-9.8-1.9-16.7 0.2-18.5 7.5-6.5 12.9-16.1 27.7-19.6 16.8-3 34.2 2.2 37.6 14.4"/>
			<path id="Vector 84" fill-rule="evenodd" class="s1" d="m53.5 42.4c-3.3-1.9-9.5-7.1-7.3-12.5"/>
			<path id="Vector 85" fill-rule="evenodd" class="s1" d="m43.2 26.2c-0.8 2.5-1.2 5.1 0.8 9.9"/>
			<path id="Vector 86" fill-rule="evenodd" class="s1" d="m39.9 34.5c0.5 3.8 2.4 11.3 5.8 10.5"/>
			<path id="Vector 88" fill-rule="evenodd" class="s1" d="m77.1 98.7c5.6-2.2 23.9-5.4 31.9-2.5"/>
			<path id="Vector 89" fill-rule="evenodd" class="s1" d="m27.7 81.8c12.2-1-0.8 48.2-12.3 45.7-6.6-1.5-7-14.3 18-1.4 7.5 3.8 13.2 2.1 20.1-1.6"/>
			<path id="Vector 103" fill-rule="evenodd" class="s1" d="m82 121.8c2.1-6.6-2.5-11-6.2-10.7-1.7 0.1-6.1 2-6.6 7.3-0.5 4.5 3.1 5.4 12.8 3.4z"/>
			<path id="Vector 105" fill-rule="evenodd" class="s1" d="m104.7 120c-3.1-6.2 0.8-11.2 4.5-11.5 1.7-0.2 6.3 1 7.7 6.1 1.1 4.4-2.3 5.8-12.2 5.4z"/>
			<path id="Vector 93" fill-rule="evenodd" class="s3" d="m89.1 73.9h1.3"/>
			<path id="Vector 94" fill-rule="evenodd" class="s2" d="m89.6 76.3c-1.5 1.1-5.8 1.5-6.6 0m11.6-0.1c-0.7 1.4-3.3 1.4-5 0.1zm-4.8-1.3l-0.1 1.4"/>
			<path id="Vector 95" fill-rule="evenodd" class="s2" d="m77.8 50.5c-0.6 1.5 0 2.5-0.4 3m-3.9 0.3c0.1 1.3 2.7 1.1 3.9-0.3zm3.8-0.3c1.7 1.7 6.1 3 7.1-0.5z"/>
			<path id="Vector 96" fill-rule="evenodd" class="s1" d="m80.3 36.3q-0.1 1.5-0.2 2.5"/>
			<path id="Vector 98" fill-rule="evenodd" class="s1" d="m46.9 47.9c0.3 3.5 2.5 10.8 9 12.4"/>
			<path id="Vector 99" fill-rule="evenodd" class="s1" d="m68.1 74.3l-10.3-3.2"/>
			<path id="Vector 101" fill-rule="evenodd" class="s1" d="m110 72l8.8-3.7"/>
			<path id="Vector 102" fill-rule="evenodd" class="s1" d="m114.4 76.7l8.8-3.7"/>
			<path id="Vector 100" fill-rule="evenodd" class="s1" d="m63.5 79.7l-10.2-2.2"/>
			<path id="Vector 106" fill-rule="evenodd" class="s1" d="m100.2 138.9c-2.8-10.1-9.2-3.5-9.9-2.4-1.7 2.7-3 6 4.9 5.4 10.9-0.9-6.6 21.8-10.4 14.9-3-5.5 31.9-20.5 34-10.4 2.6 12.5 19.5-22.7 31.4-11.5"/>
		</g>
	</g>
</svg>