<svg width="40" height="40" viewBox="0 0 40 40" fill="none" xmlns="http://www.w3.org/2000/svg">
<path d="M23.58 39.4554C24.9364 39.4554 25.8967 38.2886 26.5934 36.4805L38.9298 4.25572C39.2689 3.38947 39.4762 2.61723 39.4762 1.97679C39.4762 0.752946 38.704 0 37.4794 0C36.8389 0 36.0667 0.188036 35.2004 0.527143L2.80687 12.9375C1.22384 13.5402 0 14.5004 0 15.8754C0 17.6079 1.31866 18.1921 3.1267 18.7385L16.7247 22.7306L20.6799 36.1591C21.2448 38.0612 21.829 39.4554 23.5808 39.4554M17.5733 19.8691L4.57714 15.8946C4.2758 15.7998 4.18178 15.7243 4.18178 15.5925C4.18178 15.4607 4.25652 15.3675 4.53937 15.2542L30.0021 5.61134C31.5088 5.04643 32.9593 4.29268 34.3527 3.65223C33.1104 4.66955 31.5659 5.87491 30.5301 6.91072L17.5733 19.8691ZM23.8821 35.313C23.7319 35.313 23.6563 35.1804 23.5623 34.879L19.5879 21.8845L32.5454 8.92688C33.5628 7.90955 34.8244 6.32732 35.8232 5.04723C35.1828 6.47759 34.429 7.92804 33.8456 9.45402L24.2028 34.9168C24.0895 35.1996 24.0139 35.313 23.8821 35.313Z" fill="#626262"/>
</svg>
